<svg width="256" height="256" viewBox="0 0 256 256" fill="none" xmlns="http://www.w3.org/2000/svg">
  <defs>
    <radialGradient id="nebula" cx="0" cy="0" r="1" gradientUnits="userSpaceOnUse" gradientTransform="translate(176 86) rotate(128) scale(186 150)">
      <stop offset="0" stop-color="#63D9FF" stop-opacity="0.8"/>
      <stop offset="0.38" stop-color="#76F0B7" stop-opacity="0.34"/>
      <stop offset="0.66" stop-color="#B177FF" stop-opacity="0.22"/>
      <stop offset="1" stop-color="#020606"/>
    </radialGradient>
    <linearGradient id="mark" x1="58" y1="74" x2="196" y2="178" gradientUnits="userSpaceOnUse">
      <stop stop-color="#F4FBF9"/>
      <stop offset="0.58" stop-color="#76F0B7"/>
      <stop offset="1" stop-color="#63D9FF"/>
    </linearGradient>
    <filter id="softGlow" x="-20%" y="-20%" width="140%" height="140%" color-interpolation-filters="sRGB">
      <feGaussianBlur stdDeviation="8" result="blur"/>
      <feMerge>
        <feMergeNode in="blur"/>
        <feMergeNode in="SourceGraphic"/>
      </feMerge>
    </filter>
  </defs>

  <rect width="256" height="256" rx="56" fill="#020606"/>
  <rect width="256" height="256" rx="56" fill="url(#nebula)"/>
  <path d="M43 162C72 96 132 61 208 61" stroke="#63D9FF" stroke-opacity="0.34" stroke-width="4" stroke-linecap="round"/>
  <path d="M53 190C93 126 149 95 219 104" stroke="#FFD166" stroke-opacity="0.24" stroke-width="3" stroke-linecap="round"/>

  <g opacity="0.78">
    <circle cx="58" cy="64" r="2.4" fill="#F4FBF9"/>
    <circle cx="200" cy="76" r="2.7" fill="#FFD166"/>
    <circle cx="214" cy="162" r="2" fill="#A7FFF0"/>
    <circle cx="92" cy="202" r="2" fill="#F4FBF9"/>
    <circle cx="174" cy="210" r="1.6" fill="#63D9FF"/>
  </g>

  <g filter="url(#softGlow)">
    <rect x="55" y="76" width="73" height="18" rx="5" fill="url(#mark)"/>
    <rect x="82" y="76" width="19" height="106" rx="5" fill="url(#mark)"/>
    <rect x="136" y="76" width="19" height="106" rx="5" fill="url(#mark)"/>
    <rect x="136" y="76" width="58" height="18" rx="5" fill="url(#mark)"/>
    <rect x="136" y="122" width="58" height="18" rx="5" fill="url(#mark)"/>
    <rect x="176" y="88" width="18" height="40" rx="5" fill="url(#mark)"/>
  </g>

  <circle cx="194" cy="104" r="8" fill="#020606" fill-opacity="0.7"/>
  <circle cx="194" cy="104" r="3.4" fill="#FFD166"/>
</svg>
